<svg width="18" height="17" fill="none" xmlns="http://www.w3.org/2000/svg"><path d="M9.8 2.017H6.204v-1.2H9.8v1.2ZM5.332 11.82l-.537-1.072 2.604-1.303.003-3.829 1.2.001-.003 4.57-3.267 1.634Z" fill="#000" fill-opacity=".9"/><path fill-rule="evenodd" clip-rule="evenodd" d="M14.599 9.816a6.58 6.58 0 0 0-2.023-4.755l1.071-1.338-.936-.75L11.64 4.31a6.6 6.6 0 1 0 2.96 5.506Zm-12 0a5.4 5.4 0 1 1 10.8 0 5.4 5.4 0 0 1-10.8 0Z" fill="#000" fill-opacity=".9"/><rect x="10" y="8.616" width="8" height="8" rx="4" fill="#00A650"/><path d="m13.31 13.333 2.605-2.604.585.585-3.19 3.19-1.81-1.81.585-.586 1.225 1.225Z" fill="#fff"/></svg>